<svg display="none" xmlns="http://www.w3.org/2000/svg">
  <symbol id="heart" viewBox="0 0 20 18">
    <path d="M17.2422 2.46484C15.3086 0.8125 12.4609 1.12891 10.668 2.95703L10 3.66016L9.29688 2.95703C7.53906 1.12891 4.65625 0.8125 2.72266 2.46484C0.507812 4.36328 0.402344 7.73828 2.37109 9.77734L9.19141 16.8086C9.61328 17.2656 10.3516 17.2656 10.7734 16.8086L17.5938 9.77734C19.5625 7.73828 19.457 4.36328 17.2422 2.46484Z"/>
  </symbol>
  <symbol id="left-arrow" viewBox="0 0 15 14">
    <path d="M9.0625 12.9062C9.375 12.5938 9.34375 12.125 9.0625 11.8125L5.28125 8.25H14.25C14.6875 8.25 15 7.90625 15 7.5V6.5C15 6.0625 14.6875 5.75 14.25 5.75L5.28125 5.75L9.0625 2.15625C9.34375 1.84375 9.34375 1.375 9.0625 1.0625L8.375 0.375C8.0625 0.09375 7.59375 0.09375 7.3125 0.375L1.21875 6.46875C0.9375 6.75 0.9375 7.21875 1.21875 7.53125L7.3125 13.5938C7.59375 13.875 8.0625 13.875 8.375 13.5938L9.0625 12.9062Z"/>
  </symbol>
  <symbol id="right-arrow" viewBox="0 0 15 14">
    <path d="M5.9375 1.09375C5.625 1.40625 5.65625 1.875 5.9375 2.1875L9.71875 5.75H0.75C0.3125 5.75 0 6.09375 0 6.5V7.5C0 7.9375 0.3125 8.25 0.75 8.25H9.71875L5.9375 11.8438C5.65625 12.1562 5.65625 12.625 5.9375 12.9375L6.625 13.625C6.9375 13.9062 7.40625 13.9062 7.6875 13.625L13.7812 7.53125C14.0625 7.25 14.0625 6.78125 13.7812 6.46875L7.6875 0.40625C7.40625 0.125 6.9375 0.125 6.625 0.40625L5.9375 1.09375Z"/>
  </symbol>
</svg>